<?xml version="1.0" encoding="UTF-8" standalone="no"?>
<svg
   xmlns:dc="http://purl.org/dc/elements/1.1/"
   xmlns:cc="http://creativecommons.org/ns#"
   xmlns:rdf="http://www.w3.org/1999/02/22-rdf-syntax-ns#"
   xmlns:svg="http://www.w3.org/2000/svg"
   xmlns="http://www.w3.org/2000/svg"
   height="101.7"
   width="503.27582"
   xml:space="preserve"
   viewBox="0 0 503.27582 101.7"
   y="0px"
   x="0px"
   id="Calque_1"
   version="1.1"><metadata
     id="metadata106"><rdf:RDF><cc:Work
         rdf:about=""><dc:format>image/svg+xml</dc:format><dc:type
           rdf:resource="http://purl.org/dc/dcmitype/StillImage" /><dc:title></dc:title></cc:Work></rdf:RDF></metadata><defs
     id="defs104" /><style
     id="style2"
     type="text/css">
	.st0{fill:#00CAB0;}
	.st1{fill:#878787;}
	.st2{fill:url(#SVGID_1_);}
</style><g
     transform="translate(0.00352142)"
     id="g99"><g
       id="g90"><g
         id="g86"><g
           transform="translate(0,8)"
           id="g34"><g
             transform="matrix(1.4247596,0,0,1.4247596,-35.999197,-16.322864)"
             id="g10"><path
               class="st0"
               d="m 363.3,28.9 c -3.7,0 -7,1.3 -9.6,3.4 V 17.6 h -5.6 v 26.5 c 0,0 0,0 0,0.1 0,0.1 0,0 0,0.1 v 0.1 0 c 0.1,8.3 6.9,15.1 15.2,15.1 8.4,0 15.2,-6.8 15.2,-15.2 0,-8.5 -6.8,-15.4 -15.2,-15.4 z m 0,24.9 c -5.3,0 -9.6,-4.3 -9.6,-9.6 0,-5.3 4.3,-9.6 9.6,-9.6 5.3,0 9.6,4.3 9.6,9.6 0,5.3 -4.3,9.6 -9.6,9.6 z"
               id="path4"
               style="fill:#00cab0" /><path
               class="st0"
               d="m 309.7,29 c -2,0 -3.9,0.5 -5.5,1.5 V 18.6 h -5.6 v 40.8 h 5.6 V 39.6 c 0,-2.9 2.6,-5.2 5.5,-5.2 2.9,0 5.5,2.3 5.5,5.2 l 0.1,19.8 h 5.6 V 40.2 C 320.8,34 315.8,29 309.7,29 Z"
               id="path6"
               style="fill:#00cab0" /><path
               class="st0"
               d="m 340,29 v 19.8 c 0,2.9 -2.6,5.2 -5.5,5.2 -2.9,0 -5.4,-2.3 -5.5,-5.2 L 328.9,29 h -5.6 v 19.3 c 0,6.1 5,11.1 11.1,11.1 6.1,0 11.1,-5 11.1,-11.1 V 29 Z"
               id="path8"
               style="fill:#00cab0" /></g><g
             transform="matrix(1.4247596,0,0,1.4247596,-35.999197,-16.322864)"
             id="g24"><path
               class="st0"
               d="m 221.8,17.5 c -1,0 -1.9,0.4 -2.6,1.1 -0.7,0.7 -1.1,1.6 -1.1,2.6 0,1 0.4,1.9 1.1,2.6 0.7,0.7 1.6,1.1 2.6,1.1 1,0 1.9,-0.4 2.6,-1.1 0.7,-0.7 1.1,-1.6 1.1,-2.6 0,-1 -0.4,-1.9 -1.1,-2.6 -0.7,-0.7 -1.6,-1.1 -2.6,-1.1 z"
               id="path12"
               style="fill:#00cab0" /><rect
               x="219"
               y="28.9"
               class="st0"
               width="5.5999999"
               height="30.4"
               id="rect14"
               style="fill:#00cab0" /><path
               class="st0"
               d="m 201.3,44.2 v 15.1 h 5.6 v -15 0 c 0,-5.4 4.4,-9.7 9.7,-9.7 V 29 c -8.4,0 -15.3,6.8 -15.3,15.2 z"
               id="path16"
               style="fill:#00cab0" /><path
               class="st0"
               d="m 280,30.4 c -5,-2.4 -11.1,-1.8 -15.6,1.5 -4.3,3.2 -6.7,8.6 -6.1,13.9 0.6,5.9 4.9,11.1 10.5,12.8 6.3,2 13.4,-0.5 17.1,-5.9 l -5.6,-1.9 c -2.4,2.5 -6.1,3.6 -9.5,2.6 -3.2,-0.9 -5.7,-3.4 -6.7,-6.5 v 0 h 24.2 c 0.2,-1 0.3,-2 0.3,-3 0,-5.6 -3.4,-11 -8.6,-13.5 z m -15.7,11 c 0.9,-3 3.2,-5.4 6.2,-6.3 3.3,-1.1 7,-0.3 9.5,2 1.3,1.2 2.2,2.7 2.8,4.3 z"
               id="path18"
               style="fill:#00cab0" /><path
               class="st0"
               d="m 242.3,34.5 c 3.4,0 6.5,1.8 8.2,4.5 l 5.3,-1.9 c -2.5,-4.9 -7.6,-8.2 -13.5,-8.2 -8.4,0 -15.2,6.8 -15.2,15.2 0,8.4 6.8,15.2 15.2,15.2 5.9,0 11,-3.3 13.5,-8.2 l -5.3,-1.9 c -1.7,2.7 -4.7,4.5 -8.2,4.5 -5.3,0 -9.6,-4.3 -9.6,-9.6 0,-5.2 4.3,-9.6 9.6,-9.6 z"
               id="path20"
               style="fill:#00cab0" /><path
               class="st0"
               d="m 183.7,29 c -8.4,0 -15.1,6.7 -15.2,15.1 v 0 0.1 c 0,0 0,0 0,0.1 0,0 0,0 0,0.1 v 26.5 h 5.6 V 56 c 2.6,2.1 6,3.4 9.6,3.4 8.4,0 15.2,-6.8 15.2,-15.2 0,-8.4 -6.8,-15.2 -15.2,-15.2 z m 0,24.8 c -5.3,0 -9.6,-4.3 -9.6,-9.6 0,-5.3 4.3,-9.6 9.6,-9.6 5.3,0 9.6,4.3 9.6,9.6 0,5.3 -4.3,9.6 -9.6,9.6 z"
               id="path22"
               style="fill:#00cab0" /></g><g
             transform="matrix(1.4247596,0,0,1.4247596,-35.999197,-16.322864)"
             id="g32"><path
               class="st0"
               d="m 150,30.4 c -5,-2.4 -11.1,-1.8 -15.6,1.5 -4.3,3.2 -6.7,8.6 -6.1,13.9 0.6,5.9 4.9,11.1 10.5,12.8 6.3,2 13.4,-0.5 17.1,-5.9 l -5.6,-1.9 c -2.4,2.5 -6.1,3.6 -9.5,2.6 -3.2,-0.9 -5.7,-3.4 -6.7,-6.5 v 0 h 24.2 c 0.2,-1 0.3,-2 0.3,-3 0,-5.6 -3.5,-11 -8.6,-13.5 z m -15.8,11 c 0.9,-3 3.2,-5.4 6.2,-6.3 3.3,-1.1 7,-0.3 9.5,2 1.3,1.2 2.2,2.7 2.8,4.3 z"
               id="path26"
               style="fill:#00cab0" /><polygon
               class="st0"
               points="90,59.4 95.5,59.4 95.5,35.3 100.9,35.3 100.9,29.3 95.5,29.3 95.5,18.6 90,18.6 "
               id="polygon28"
               style="fill:#00cab0" /><path
               class="st0"
               d="m 114.3,29 c -2,0 -3.9,0.5 -5.5,1.5 V 18.6 h -5.6 v 40.8 h 5.6 V 39.6 c 0,-2.9 2.6,-5.2 5.5,-5.2 2.9,0 5.5,2.3 5.5,5.2 l 0.1,19.8 h 5.6 V 40.2 C 125.5,34 120.5,29 114.3,29 Z"
               id="path30"
               style="fill:#00cab0" /></g></g></g></g><linearGradient
       y2="50.9277"
       x2="67.5299"
       y1="50.9277"
       x1="0"
       gradientUnits="userSpaceOnUse"
       id="SVGID_1_"><stop
         id="stop92"
         style="stop-color:#385C7E"
         offset="0" /><stop
         id="stop94"
         style="stop-color:#00CAB0"
         offset="1" /></linearGradient><path
       style="fill:url(#SVGID_1_)"
       id="path97"
       d="M 62.8,37.3 51.6,30.6 C 51,30.2 50.4,29.9 49.7,29.7 V 22.3 C 54.5,21 58,16.6 58,11.4 58.1,5.1 53,0 46.7,0 40.4,0 35.4,5.1 35.4,11.3 c 0,5.2 3.5,9.6 8.3,10.9 v 7.5 c -0.9,0.3 -1.5,0.6 -1.8,0.8 l -11.3,6.8 c -0.7,0.4 -1.2,0.9 -1.8,1.4 L 22.3,35.3 C 23.4,30.4 21.2,25.3 16.6,22.8 15,21.9 13.1,21.5 11.3,21.5 v 0 c -4.2,0 -8,2.3 -10,6 -2.9,5.5 -0.8,12.4 4.7,15.3 1.6,0.9 3.5,1.3 5.3,1.3 3.2,0 6.1,-1.3 8.3,-3.6 l 6.5,3.4 C 26,44.5 25.9,45 25.9,45.5 v 13.7 c 0,4 2.5,7 4.7,8.3 l 2.6,1.6 -3.8,6.4 c -1.3,-0.4 -2.8,-0.7 -4.2,-0.7 v 0 c -4.5,0 -8.7,2.2 -11.2,5.9 -2,3 -2.8,6.6 -2.1,10.1 0.7,3.5 2.7,6.6 5.7,8.6 2.2,1.5 4.9,2.3 7.6,2.3 4.5,0 8.7,-2.2 11.2,-5.9 2,-3 2.8,-6.6 2.1,-10.1 -0.5,-2.8 -1.9,-5.3 -3.9,-7.2 l 3.8,-6.4 3.5,2.1 c 1.4,0.9 3.1,1.4 4.8,1.4 2.4,0 4.3,-0.9 4.9,-1.3 l 11.3,-6.8 c 3.5,-2.1 4.7,-5.8 4.7,-8.3 V 45.6 c -0.1,-4 -2.6,-7 -4.8,-8.3 z m -46.7,-2 c -1,1.8 -2.8,2.8 -4.7,2.8 -0.8,0 -1.7,-0.2 -2.5,-0.6 -2.6,-1.4 -3.6,-4.6 -2.2,-7.2 1,-1.8 2.8,-2.8 4.7,-2.8 0.8,0 1.7,0.2 2.5,0.6 2.6,1.4 3.5,4.6 2.2,7.2 z m 15.3,57.3 c -1.5,2.1 -3.8,3.3 -6.2,3.3 -1.4,0 -2.9,-0.4 -4.2,-1.3 -3.4,-2.3 -4.3,-7 -2,-10.4 1.5,-2.1 3.8,-3.3 6.2,-3.3 1.4,0 2.9,0.4 4.2,1.3 3.4,2.2 4.3,6.9 2,10.4 z m 10,-81.3 c 0,-3 2.4,-5.3 5.3,-5.3 3,0 5.3,2.4 5.3,5.3 0,3 -2.4,5.3 -5.3,5.3 -2.9,0.1 -5.3,-2.3 -5.3,-5.3 z m 20.1,48 c 0,0 0,2.1 -1.8,3.1 l -11.2,6.8 c 0,0 -0.8,0.5 -1.8,0.5 -0.5,0 -1.1,-0.1 -1.7,-0.5 L 33.8,62.4 c 0,0 -1.8,-1.1 -1.8,-3.1 V 45.6 c 0,0 0,-2.1 1.8,-3.1 L 45,35.7 c 0,0 0.8,-0.5 1.8,-0.5 0.5,0 1.1,0.1 1.7,0.5 l 11.2,6.8 c 0,0 1.8,1.1 1.8,3.1 z"
       class="st2" /></g></svg>